<svg height="231" viewBox="0 0 305 231" width="305" xmlns="http://www.w3.org/2000/svg"><g fill="none" fill-rule="evenodd"><path d="m-33-9h370v250h-370z" fill="none"/><g fill="#d9d9d9"><path d="m186.932 122.428c-.08.149-.225.297-.227.447-.014 1.914-.9 3.442-1.979 4.932-1.976 2.73-3.876 5.516-5.824 8.266-.276.39-.645.71-1.039 1.135l-.75-.868c-.207.687-.41 1.221-.527 1.774-.788 3.707-1.55 7.42-2.346 11.126-.092.426-.336.823-.531 1.223-.466.95-1.154 1.847-1.375 2.85-.427 1.935-1.87 3.13-2.883 4.637-.602.898-1.588 1.587-1.448 2.894.02.176-.368.44-.61.596-.753.484-1.706.63-2.048 1.728-.195.629-1.753.27-2.167-.54-.68.772-1.467.912-2.393.482-.2-.092-.593.079-.816.242-.642.47-1.228 1.017-1.866 1.492-.264.196-.621.43-.91.4-2.188-.23-3.535 1.28-5.051 2.434-.3.229-.513.576-.815.8-.375.28-.801.49-1.17.71-.117.31-.165.746-.4 1.012-.625.704-.694 1.41-.632 2.367.128 1.951-.367 3.91-2.135 4.97-1.664.998-2.487 2.66-3.745 4.043l-1.228-1.029c-.324.522-.541 1.054-.91 1.436-1.5 1.552-2.69 3.3-3.86 5.124-1.056 1.644-2.611 3.214-4.31 4.1-1.385.722-3.28.98-5 .375-.358-.126-.707-.281-1.07-.386-1.465-.423-2.421-1.249-2.374-2.952-.047.159-.092.318-.143.476-.6 1.88-.61 1.892.913 3.086.685.537 1.386.993.581 1.995-.114.142.062.695.262.892.737.727.715 1.373.103 2.244-1.898 2.705-4.655 3.55-7.707 3.747-1.378.088-2.766.014-4.116.014-.317 1.328-.632 2.734-1.007 4.124-.052.195-.378.398-.608.448-1.32.286-2.647.54-3.887-.317-.19-.131-.445-.168-.864-.318-.166 1.005-.388 1.94-.453 2.887-.04.604.944 1.137 1.54.925.287-.102.567-.224 1.086-.175-.19.373-.378.746-.567 1.12l-.143-.333-1.69-.29-.1.35c.235.223.47.445.74.698-.241.175-.416.357-.628.447-1.05.44-1.638 1.224-1.746 2.361-.083.88-.567 1.258-1.41 1.344-1.197.124-2.134.753-2.767 1.773-.155.248-.196.74-.055.976.493.822.974 1.708 2.14 1.744.184.006.528.357.506.503-.062.418-.167.939-.452 1.188-.513.448-1.154.757-1.769 1.07-.95.482-1.65 1.117-2.108 2.157-.275.623-1.03 1.033-1.577 1.53-.432.39-.877.767-1.363 1.193.436.679.84 1.309 1.245 1.937-.8.173-1.543.37-2.298.486-1.185.181-2.042.695-2.355 1.96-.048.196-.41.313-.628.467l-.22-.29c.143-.17.347-.317.413-.512.123-.365.28-.785.198-1.128-.045-.19-.548-.387-.837-.376-.882.032-1.76.165-2.711.265-.15-.546-.076-1.18.71-.81.92.435.955-.18 1.212-.621l-1.149-1.311-.462 1.27c-.079.025-.157.052-.236.078l-.307-1.755.877-.42.035-.256-.993-.298-.31-1.24.668-.205c-.209-.678-.483-1.303-.56-1.951-.032-.262.327-.62.58-.853.25-.23.592-.359 1.082-.64l-1.692-1.055c.368-.696.089-1.275-.698-1.421-.233-.043-.432-.279-.646-.426.309-.252.635-.727.924-.705.48.037.939.392 1.532.672l.613-1.833-.32-.173 1.112-.254-1.05-.51 1.553-1.25-1.009-.845.756-.581c-.676-1.369-.57-1.908.553-2.912.452-.404.38-.72-.345-1.4.105-.129.21-.26.318-.39l.39-.47c-.657 0-1.225-.011-1.792.003-.741.019-1.517-1.046-1.085-1.645 1.522-2.106 1.39-4.332.638-6.63-.24-.733-.217-1.25.63-1.549.262-.092.46-.498.596-.802a413.841 413.841 0 0 0 3.07-6.97 3.85 3.85 0 0 0 .284-1.41c.033-1.78-.046-3.564.042-5.34.036-.718.414-1.413.597-2.13.147-.572.42-1.2.307-1.733-.208-.988-.188-1.883.142-2.837.75-2.167 1.467-4.35 2.115-6.55.23-.78.412-1.662.29-2.446-.362-2.342-.1-4.585.722-6.771.877-2.336.577-4.74.49-7.135-.003-.068-.041-.138-.036-.205.265-3.42-2.088-5-4.522-6.436-2.2-1.297-4.478-2.465-6.754-3.624-1.89-.962-3.267-2.41-4.241-4.271-.157-.301-.265-.775-.14-1.052.32-.714.158-1.232-.307-1.796-2.815-3.415-4.632-7.382-6.309-11.453-1.228-2.983-2.9-5.702-5.858-7.314-.147-.08-.27-.208-.479-.374 1.223-1.151.249-2.289-.123-3.325-.392-1.093-.175-1.662.763-2.182.63-.35 1.202-.816 1.78-1.255.945-.715 1.305-2.402.693-3.56l-1.051 1.178c-.658-.362-1.536-.491-1.582-1.514-.066-1.506-.713-3.241 1.221-3.775.138-.588.102-1.122.337-1.313.896-.728 1.048-1.576.552-2.706.804-.218 1.516-.433 2.239-.598.53-.121.9-.294.756-.961-.12-.553.069-.887.673-1.073.25-.077.545-.604.517-.896-.08-.81.262-1.159.98-1.287 1.79-.32 2.126-2.015 2.915-3.256.097-.153-.23-.782-.502-.937-.635-.362-.714-.827-.622-1.477.209-1.482.414-2.967.518-4.459.033-.465-.18-1.005-.43-1.418-.356-.59-.844-1.1-1.286-1.636-.659-.798-1.581-1.542-.528-2.426-.657-.52-1.285-.936-1.808-1.458-.442-.44-.793-.518-1.335-.19-1 .603-2.04 1.138-3.165 1.759l1.213 2.113c-.703.221-1.41.694-1.884.518-.415-.154-.568-1.034-.866-1.656l-.73.294c-.74-.474-1.31-1.046-1.975-1.207-.67-.163-1.534-.703-2.123.317l-1.037-1.298-.365.618c-.117-.217-.238-.333-.226-.434.108-.966-.416-1.538-1.124-2.066-.96-.716-1.87-1.501-2.802-2.257l-.2.17.51.986c-.272.11-.64.385-.782.295-.372-.236-.837-.589-.92-.971-.19-.882-.144-1.812-.263-2.713-.03-.232-.294-.452-.488-.637-1.28-1.219-2.57-2.427-3.696-3.486l.405-2.074c-1.268.196-2.27.367-3.276.498-.391.052-.816.095-1.19-.001a153.455 153.455 0 0 1 -5.071-1.403 3.476 3.476 0 0 1 -1.082-.559c-1.965-1.478-3.894-3.004-5.881-4.45-.353-.256-.939-.338-1.385-.274-.984.14-1.981.328-2.91.671-1.426.526-2.726.319-4.09-.232-1.882-.762-3.803-1.434-5.73-2.076-1.389-.463-2.628-1.06-3.694-2.154-.507-.52-1.475-.66-2.263-.797-1.034-.18-1.854-.563-2.501-1.439-.68-.92-1.493-1.738-2.223-2.621-.255-.308-.436-.679-.686-1.076l.953-.567-.217-.097c.122-.397.146-.874.386-1.175.516-.648.431-1.246.295-2.017-.364-2.07-1.631-3.564-2.817-5.145-.437-.583-.68-1.313-1.045-1.955a1.893 1.893 0 0 0 -.552-.58c-.477-.335-.98-.631-1.472-.943.04-.165.032-.294.091-.352.796-.785.678-1.429-.187-2.106-.822-.645-1.623-1.38-.83-2.587a3.155 3.155 0 0 1 -2.383-3.117c.024-1.08.08-2.16.178-3.235.057-.643-.118-1.048-.735-1.302-.691-.284-1.348-.652-2.161-1.054-.313 1.458-.625 2.765-.853 4.086-.05.297.169.657.307.968.598 1.347 1.551 2.563 1.285 4.208-.055.336.262.783.5 1.11.774 1.06 1.093 2.214.948 3.528-.065.586.033 1.19-.02 1.778-.086.925.101 1.569 1.082 1.953.321.126.56.9.537 1.362-.022.435-.438.85-.84 1.245-.193-1.774-1.635-2.443-2.616-3.443-.514-.524-.718-.978-.391-1.639.763-1.539.398-2.864-.771-4.087l-1.003.523-1.395-1.645 1.305-.193c.09-.395.058-.84.264-1.056.661-.695.538-1.296-.084-1.87-1.442-1.334-1.509-3.02-1.273-4.803.068-.518.17-1.057.096-1.563-.17-1.17.472-1.396 1.408-1.492.773-.078 1.532-.297 2.297-.454h.207c1.58.67 3.172 1.31 4.734 2.02 1.952.886 3.927.195 5.893.168.096-.001.241-.043.279-.113.709-1.31 1.948-.866 3.031-.97.714-.07 1.224.162 1.711.706.845.944 1.556 1.852 1.591 3.258.035 1.405 1.654 2.046 2.749 1.212.523-.398 1.027-.825 1.569-1.195.663-.454 2.153-.234 2.502.424 1.049 1.982 2.512 3.775 2.789 6.118.07.592.362.905.978 1.017.993.181 1.97.462 3.316.79-.642.58-1.061.925-1.438 1.313-.287.295-.669.61-.75.974-.346 1.56-.541 3.155-.9 4.711-.303 1.324-.148 2.518.421 3.742a90.75 90.75 0 0 1 2.269 5.381c.353.91.702 1.654 1.872 1.478.22-.033.566.142.71.332.921 1.224 2 1.2 3.241.562.547-.28 1.177-.386 1.751-.615.952-.38 1.883-.573 2.892-.158.243.1.707-.014.911-.204 1.086-1.008 2.212-1.991 2.55-3.572a7.61 7.61 0 0 1 .71-1.955c.198-.371.583-.756.966-.888 1.071-.368 2.212-.53 3.276-.915 1.46-.53 2.794-.012 4.306.23l-2.602 3.978.722.49-1.069 2.634-.422-.795c-.703.45-1.411.768-1.952 1.272-1.778 1.658-1.089 4.002-1.727 6 1.126.256 2.068.676 2.992.64 1.989-.078 3.994-.26 5.945-.644 2.149-.422 3.773.783 5.576 1.468.127.049.258.265.273.415.092.952.36 1.95.182 2.855-.415 2.11-1.073 4.172-1.576 6.267-.095.395-.065.945.142 1.269a96.69 96.69 0 0 0 3.515 5.167c.258.35 1.146.72 1.265.598.613-.624 1.007.028 1.494.088.466.058 1.01.094 1.414-.095.87-.407 1.663-.98 2.506-1.452.289-.161.634-.319.95-.313 1.858.037 3.487.711 4.836 2 .757.723 1.444 1.524 2.162 2.29l.318-.035c-.786-1.54.25-2.08 1.187-2.69.493-.319.996-.638 1.426-1.034.216-.198.407-.574.39-.855-.142-2.35 1.3-3.822 3.486-3.65.425-.274.94-.682 1.33-.584 1.246.311 2.11-.245 2.977-.982.526-.448 1.099-.841 1.648-1.262 1.156-.886 1.155-.887 2.308.22l-2.126 1.45c.453.641.875 1.238 1.294 1.838-.324.497-.581 1.056-.98 1.474-.766.8-.623 1.474-.112 2.387.523.936 1.005.841 1.808.497.863-.37.81-.98.556-1.615-.374-.932-.854-1.82-1.29-2.727 1.015-.513 2.01-1.076 3.053-1.517.571-.241 1.257-.461 1.837-.365.999.167 1.961.573 2.926.915.233.082.564.28.598.472.251 1.42 1.18 1.455 2.293 1.273.575-.094 1.185.008 1.75-.112 1.004-.213 1.946-.124 2.75.503 1.82 1.416 3.538.551 5.38-.116l-.594-.44h4.715l-2.01.801c.936.542 1.033 1.793 2.312 1.598 1.872-.287 2.92.65 3.016 2.542.012.232.079.46.115.661.702.056 1.405-.05 1.957.193.94.414 1.841.973 2.653 1.61 1.07.838 2.06 1.795 1.319 3.406-.076.164.02.41.046.731l.846-.964c.804.726 1.574 1.374 2.285 2.082.53.526 1.099.735 1.846.715 1.861-.049 3.724-.026 5.586-.007.375.004.749.121 1.231.205-.214.454-.307.758-.481 1.003-.596.837-.693 1.69-.222 2.622.853 1.689.991 3.35-.185 4.98-.118.165-.059.67.09.778.324.239.962.565 1.114.433.733-.636 1.425-.196 2.15-.14.306.024.766-.158.934-.403 1.107-1.616 2.155-3.275 3.3-5.04.149.363.326.682.411 1.025.3 1.214.637 2.426.83 3.66.165 1.06.577 1.807 1.622 2.164.254.086.658.474.621.559-.316.733.024 1.618-.8 2.274-1.371 1.09-2.71 2.294-3.1 4.169-.015.071.024.154.05.296l.732-.646.148.868.245.165.47-1.02.58.946c.329-.66.533-1.216.864-1.679.178-.249.596-.507.868-.47 1.244.168 2.474.44 3.825.696-.248.678-.507 1.21-.633 1.773-.213.95-.805 1.374-1.699 1.55-.578.116-1.135.344-1.701.521l.058.157 1.684-.236-.235 1.445.167.101 1.588-1.904 1.625.167.049-.322-.668-.476.865-1.793c1.271.326 2.615.178 3.554 1.235.08.09.251.091.374.145 1.037.457 2.269.637 2.8 2.182l.605-1.13c.781 1.028 1.139 1.817-.195 2.542.398.055.583.08.59.082l-.29 2.427.275.105c.673-.525 1.42-.98 2.002-1.595.783-.826 1.452-.734 2.305-.13.54.384 1.208.71 1.852.791 1.33.17 2.683.139 4.023.235.354.025.753.136 1.034.343 1.673 1.236 3.331 2.511 4.328 4.414.643 1.229 1.652 1.722 2.952 1.934 1.744.284 2.032.73 2.193 2.542.086.957.302 1.903.459 2.853v.629z"/><path d="m90.44 215.091c-.323-.08-.66-.123-.965-.258-.162-.071-.373-.301-.375-.462-.001-.17.194-.444.348-.495a7.907 7.907 0 0 1 1.586-.366c.196-.023.552.148.6.317.59 2.117 2.17 2.685 3.762 3.254.088.03.168.097.304.179-1.644 1.144-3.347.338-5.109.43l.21-.783-1.304-.784 1.037-.765-.093-.267m-5.741-20.973v2.083c0 .766-.397.934-.763.905-.479-.038-.325-.627-.267-1.042.07-.51.138-1.04.293-1.498.102-.303.355-.495.54-.737zm-43.384-100.869 1.584 2.443c-.455 1.02-1.19.966-2.102.58l1.069-.862-1.167-1.414zm44.484 122.631h-1.1l.001-.372h1.086zm-2.2-171.705c-2.303 1.357-4.742.555-7.084.97l-.191-.362c.189-.11.406-.187.561-.335.535-.508.39-1.113-.304-1.334-.092-.03-.192-.073-.283-.062-1.192.147-1.859-.562-2.49-1.509-.27-.403-.86-.682-1.35-.788-1.89-.411-3.797-.725-5.696-1.089-.245-.047-.478-.171-.866-.315l.753-.348c-.434-.766-1.889-.994-2.817-.434-.727.438-1.412.952-2.134 1.4-.312.194-.67.305-1.199.538.416-1.294.806-2.094 2.113-2.2 1.692-.137 3.356-.765 5.042-.813 1.267-.036 2.595.376 3.813.833 1.14.428 2.186 1.152 3.25 1.79 1.768 1.062 3.543 2.084 5.71 2.103-.147.93.24 1.241.96 1.36.749.124 1.476.39 2.212.595m14.3 3.929c-.33.122-.667.36-.988.346a25.732 25.732 0 0 1 -2.88-.305c-1.099-.177-2.032-.066-2.695.815-.157.21-.38.38-.563.558-.09-.006-.188.01-.209-.018-1.127-1.49-2.763-.972-4.272-.777-.993.128-1.855.08-2.693-.756 1.62-.394 3.147.085 4.69.016.045-.738-1.505-1.043-.482-1.972l-1.451-.477-.02-.163c.486-.08.978-.248 1.457-.223 1.805.094 3.605.254 5.408.384.97.07 1.418.751 2.011 1.27a1.9 1.9 0 0 0 .606.347c.653.229 1.319.429 1.98.64zm6.6 1.986c-.352.165-.697.425-1.057.472-.585.078-1.182.055-1.769-.01-.167-.02-.316-.334-.474-.512.158-.172.312-.484.474-.492.909-.048 1.82-.023 2.73-.023l.096.566m11 18.008v-.969l1.038-.12c.148 1.083.113 1.114-1.038 1.089m-40.396-34.979.796.77-.858.322-.242-.986.304-.107"/><path d="m184.037 61.902c-2.724.114-3.155-1.126-2.025-3.415.4-.81.699-1.967 1.502-2.47 1.211-.76 2.642-.395 3.905-.956 1.03-.458 1.324-1.195 1.856-2.104.596-1.016 1.366-1.855 2.063-2.793.66-.887.809-1.695 1.112-2.698.35-1.158 1.48-1.846 2.4-2.504 1.222-.875 3.798-3.07 2.999-4.895-.941-2.15-4.739-1.186-6.514-1.954-.353-.154-1.71-1.422-1.71-.345 0 .962-1.228 1.359-1.94 1.611-1.016.36-2.014.818-2.952 1.348-1.251.706-1.39 1.418-1.924 2.565-.869 1.869-4.417-1.456-5.096-2.109-.749-.721-1.521-1.46-2.167-2.277-.771-.975-2.309-.731-3.384-1.008-2.61-.671-2.75-2.16-3.338-4.443-.241-.94-.847-1.41-1.23-2.192-.533-1.094-.065-2.67.017-3.815.075-1.033 0-2-.072-3.023-.068-.982.412-2.166-.336-2.975-.918-.994-1.202-.345-1.892.172-.43.323-.953.435-1.398.727-.658.43-.568.933-.977 1.474-.674.89-2.148.877-3.004.308-.857-.57-1.178-1.874-1.56-2.777-.333-.79-.615-2.373-.046-3.109.236-.304.633-.092.496-.623-.152-.592-.491-1.082-.61-1.703-.412-2.138.22-4.118 1.853-5.606 1.922-1.787 4.364-2.42 6.943-1.875 2.224.47 5.147 3.874 7.429 1.933.9-.765.845-2.422 1.204-3.483.44-1.302.955-2.595 2.365-3.054 1.393-.453 2.543-.218 3.591-1.51 1.079-1.328 2.224-2.237 4.06-2.237 1.707-.01 3.532-.026 5.184.456 2.15.626 4.153 1.712 6.24 2.515 2.487.958 4.938 1.939 7.548 2.528 1.644.37 3.824.48 5.192 1.574.922.736 1.255 1.716 1.856 2.673.69 1.101 1.476.777 2.354 1.4.56.396.3 1.408 1.248.57.61-.54 1.312-1.284 2.074-1.6 1.824-.757 4.287-.474 5.992.463 1.703.937 3.377 1.28 5.113.13 1.952-1.294 2.633-3.205 5.272-3.51 1.185-.144 2.57-.327 3.732.052 1.216.395 1.31 2.154 2.184 2.91.897.776 3.072 1.256 3.81-.024.658-1.144 1.348-1.31 2.808-1.106l4.036.564c2.142.3 3.8 1.268 5.966 1.286 3.92.027 8.215-2.07 10.076-5.706.513-1.002.443-1.583 1.812-1.681.963-.07 2.049-.234 2.97.124 2.136.829 3.792 3.123 5.33 4.735 1.952 2.075 4.58 2.942 6.62 4.793 1.287 1.166 1.965 2.623 2.44 4.27.581 2.014-.707 2.06-2.285 2.68-1.162.457-2.509 1.875-1.502 3.187.925 1.202 3.605 1.37 4.81.51 1.239-.885 3.455-.635 4.862-.4 1.56.26 1.405 1.912 1.187 3.207-.526 3.382-3.122 4.253-5.993 5.313-1.7.63-4.061 1.09-5.457 2.258-1.005.84-.851 2.006-.8 3.162.06 1.326-.01 2.641-.115 3.962-.086 1.093.256 7.034-2.301 5.186-1.004-.726-1.087-2.008-1.661-3.017-.576-1.013-1.598-1.681-2.042-2.759-.463-1.123-.007-2.527-.72-3.514-.834-1.153-2.4-1.084-3.673-1.084-1.215 0-1.982.42-2.897 1.233-1.115.986-.437 1.492.358 2.34.912.97 1.948 2.01 1.711 3.475-.176 1.09-.778 2.031-.359 3.177.874 2.389 1.596 4.592 1.596 7.172v2.05c0 3.12.692 6.998-2.196 9.141-1.636 1.214-3.254 2.66-5.086 3.57-1.46.726-3.631.458-4.804 1.632-1.299 1.3-3.318 2.093-5.082 2.464-1.628.343-3.607-.044-4.315 1.87-.305.825-.215 1.832.071 2.651.362 1.033.919.745 1.671 1.27.745.519 2.381 3.534 1.486 4.301-.647.555-1.53.22-2.216.636-.831.506-1.143 1.6-1.117 2.516.045 1.72.722 7.523-2.261 6.778-1.723-.43-3.216-2.607-4.427-3.817-2.392-2.387-2.51.936-2.092 2.655.331 1.364.609 2.757 1.14 4.062.218.537 3.137 4.766 3.46 4.438v2.277c0 .879.139 1.873-.052 2.737-.17.77-.698 1.553-1.537 1.669-.844.116-.93-1.035-1.717-.877-2.23.454 1.357 3.402 1.763 3.72 1.41 1.109 2.76 2.408 3.54 4.045.696 1.46.513 3.296.513 4.872 0 2.267 2.467 2.14 4.02 2.387 1.184.187 3.505 1.277 3.505 2.621 0 .502.334 1.764.05 2.187-.414.616-1.61.587-2.238.52-1.854-.202-3.012-1.61-4.764-1.97-1.862-.381-3.198-1.436-3.981-3.234-.26-.594-.053-1.374-.38-1.889-.35-.55-1.245-.78-1.752-1.184-1.423-1.137-2.514-2.79-3.24-4.447-.646-1.479-.456-3.099-1.152-4.522-.802-1.642-2.15-2.979-2.996-4.601-.804-1.543-1.108-3.401.044-4.879.425-.544 1.119.111 1.403.451.648.778.543 1.257 1.674 1.257 1.304-.376.991.982 1.275 1.868.383 1.196 1.234 1.243 1.234-.16 0-1.374.053-2.525-.468-3.826-.337-.841-.87-1.963-1.698-2.437-.836-.475-1.013-2.355-1.105-3.17l-.593-5.233c-.098-.861-.198-1.721-.288-2.583-.15-1.425.131-3.719-1.242-4.618-.562-.367-1.242-.319-1.786-.735-.862-.66-.984-1.54-1.28-2.503-.565-1.841-2.393-2.323-2.752-4.296-.173-.948-.102-1.98-.853-2.716-.556-.543-1.657-.378-2.37-.515-1.816-.349-2.968-.195-4.374 1.208-1.288 1.287-2.615 2.543-3.737 3.982-.782 1.005-1.353 2.276-2.765 2.511-1.21.2-2.42 1.393-3.199 2.257-1.31 1.402-2.294 3.303-2.352 5.255-.036 1.284-.635 4.962.649 5.692 1.236.706.415 3.212 1.709 3.643.659.22.91 1.207.763 1.8-.214.861-1.21.902-1.931 1.054-1.825.384-1.45-.841-1.77-2.129-.453-1.823-1.836-.737-2.799-1.626-1.084-1.002-1.589-2.792-1.673-4.221-.087-1.471-.753-3.043-1.48-4.304-1.436-2.491-2.936-4.946-3.387-7.847l-.637-4.087c-.112-.721-.162-1.537-.556-2.166-.42-.669-1.485.574-2.395.196-2.869-1.195-2.856-4.62-4.353-6.86-.674-1.01-1.775-2.36-3.015-2.683-1.102-.287-2.766.155-3.898.202l-.005.001z"/><path d="m285.997 50.338c-.362-.124-.71-.422-.937-.708-.46-.58-1.183-.539-1.78-.928-1.04-.68 1.92-1.748 2.294-1.904-.171-.475.335-1.326.937-1.326 2.068.041 5.265-1.1 4.31-3.626h.467c1.925.235 2.584-1.692 3.232-2.92.507-.956.261-2.113.805-3.017.407-.678 1.628-1.33 2.144-.346h.28c.745-.05 1.69.388 1.69 1.195 0 .846.406 3.51-.657 3.937-.983.399-.64 2.45-.77 3.225-.172 1.01-.552 2.051-1.619 2.481-1.03.416-1.837 1.14-2.942 1.395-.967.224-.875 2.366-1.365 2.366-1.17 0-2.221-1.062-3.465-1.062-1.062 0-1.472 1.634-2.624 1.238-.283-.097.282.097 0 0m10.488-16.859c.765-.547.735-2.478.813-3.297.117-1.232.259-2.428.52-3.645h.864c.86-.026 1.693.03 2.509.321 1.314.472 2.212 1.789 3.608 2.055.407 1.128-.578 1.798-1.17 2.669-.693 1.018-.771 2.171-2.318 2.171h-2.533c-.259 0-2.527-.106-2.293-.274.21-.15-.211.151 0 0m-41.932 42.743c-.116 1.486-2.9-.986-3.307-1.12l.245-.307c.533-.814 2.315-2.082 2.938-.915h.409c.54-.181.63.51.76 1.023.26 1.033-.979.461-1.045 1.319-.022.28.022-.281 0 0m12.107 10.335c-.726 0-1.47-1.083-2.287-1.193l-.47-.694c-.333-.43-1.141-1.49 0-1.39l.284-.1c.726-.142 1.51 1.267 1.694 1.98l.567-.295c1.092-.29 2.258-3.197 2.258-4.316 0-.272-.172-2.76.233-2.758.644.005.574 1.755.523 2.113h.562c1.308-.297.946 2.007.848 2.78-.624.429-1.32.87-1.789 1.49-.454.596-.65 2.383-1.577 2.383h-.847zm2.897 10.829c.26.559 2.141-.895 2.533-1.072-.562-.621-.322-1.617-.318-2.358.008-1.578-.048-2.787-1.592-3.717-1.374-.828-2.268-1.346-3.035-2.72-.127-.23-1.012-1.229-1.403-.895-.51.435-.047 1.804.085 2.28.263.778.296 1.81 1.094 2.32.95.321 1.161 2.696.224 2.992-1.198.382.869 1.13 1.057 1.237.733.412 1.04 1.251 1.355 1.933.137.295-.137-.296 0 0"/><path d="m269.085 89.843c-.465 0-.356-2.19.27-2.19.924 0 .55 2.19-.27 2.19m-13.775 27.392c0-.21 2.197-.263 2.523-.817.251-.427.102-.91.441-1.328.38-.47.647-.481.823-1.143.362-1.362.05-2.82.448-4.176.346-1.181.477-2.284.477-3.545v-6.586c0-.724.049-3.222-.997-3.222-2.172 0-1.912 3.099-3.886 3.722-1.648.521-2.482 2.729-3.663 3.998-.655.703-1.449 1.325-2.008 2.12-.617.88-2.027.003-2.494 1.22-.38.991.26 1.655.687 2.402.565.992.345 2.227.606 3.303.422 1.744 3.134 2.583 4.69 2.583h.497c.557-.026 1.855-.01 1.855.853v.617zm6.46 1.095c-1.921 0-1.916-2.986-1.573-4.39.207-.85.394-1.684 1.043-2.293.85-.799.888-1.154 1.393-2.17.874-1.755.98-3.086 3.178-3.19.945-.045 5.19.009 3.812 2.138-1.69-.007-4.91-.399-6.015 1.183-1.022 1.461.718 2.083 1.587 2.816 1.013.855.835 2.475 1.145 3.686h.577c.607-.194.733.22.701.778-.025.429-.139 1.012-.559 1.224-.23.116-.864-.223-.987.033-.277.594-2.148-.602-2.474-.792-.819-.477-.843.977-1.827.977m14.969-7.707c-.678.205-2.456-2.037-2.456-2.675 0-1.28 3.232-.194 3.232 1.049.15.693.05 1.38-.776 1.626-.428.13.43-.128 0 0m11.582 13.335c-1.182-.695-.52-3.563-1.122-4.747-.908-1.786-2.56-2.433-4.071-3.468-.468-.32-1.339-.968-1.339-1.64 0-1.08-2.021-.992-2.021-2.038 0-.639.537-1.315 1.152-1.398.988-.131 1.027 1.76 1.053 2.393h.276c2.554.038 5.099.849 7.634 1.139.964-.005 1.927.094 2.89.094.709 0 .78-.105.942.745.147.77.491 1.59.491 2.38-.02 1.752.92 3.083.92 4.739v2.181c0 1.473-.61 2.068-2.2 1.372-.822-.36-1.262-1.102-2.185-1.308-.796-.178-1.678-.007-2.42-.444-.354-.208.353.208 0 0m-19.132-55.043c-.844.508-.873-.87-1.489-1.167l.744-.538c.46-.333 2.548-2.475 2.548-.897 0 1.249-.49 1.813-1.802 2.602-.41.246.41-.247 0 0m6.811 1.234c.45-.06 1.573-.107 1.573.857 0 .776-2.16-.831-2.194-.857h.62z"/></g></g></svg>