<svg height="152" viewBox="0 0 232 152" width="232" xmlns="http://www.w3.org/2000/svg"><g fill="none" fill-rule="evenodd"><path d="m-69-12h370v176h-370z" fill="none"/><path d="m154.112 129.424c.042 0 .042.042.084 0 .169-.042.084 0-.084 0m-2.646-77.16c.041.676.125 1.268.336 1.819l.041.043c.8 2.031 1.555 3.174 2.27 3.64.293.169.545.21.755.169.295-.128.588-.381.882-.805.925-1.227 1.555-3.343 1.765-5.544l.126-2.37c.168-3.217.378-7.153 1.555-9.947 1.344-3.302 3.822-5.164 8.528-3.217 1.806.762 1.303 4.444.924 7.365-.042.254-.084.465-.126.677.798-.677 1.638-1.016 2.436-1.1.589-.043 1.176.042 1.723.168.504.17.966.424 1.302.72.672.466 1.093 1.143 1.176 1.65l.043.085c.167 1.567-.169 3.81-.462 6.01-.42 2.921-.84 5.842-.295 6.308.63.508 3.067-1.609 9.327-9.312.252-.297.504-.635.756-.973 1.68-2.16 3.655-4.783 6.806-4.741 3.403 0 4.243-.973 4.243-2.074 0-.72-.252-1.566-.463-2.244-.336-1.057-.545-1.861.043-2.496 4.663-5.038 6.217-5.46 8.78-6.18 1.345-.381 2.983-.847 5.63-2.244 6.637-3.513 5.881-8.338 5.377-11.682-.126-.93-.295-1.777-.252-2.539.042-1.82.798-2.92 3.234-2.836h.127c3.487.17 6.974 2.581 9.536 4.994 1.765 1.651 3.15 3.47 3.865 4.572.336.17.546.55.546.93-.252 6.138-3.823 6.35-6.133 6.477-.42 0-.505-.424-.63-.212-.547 1.228-1.303 2.159-2.017 3.005-1.176 1.482-2.268 2.794-1.513 5.587.294 1.016.337 1.905.42 2.667.084 1.058.126 1.65 1.765 1.481 2.899-.211 3.949.508 4.034 1.609.125 1.566-2.942 3.555-3.866 4.148-1.596 2.92-3.108 2.92-4.957 2.92-1.345 0-2.941 0-5.167 2.159-.966.931-3.193 4.317-4.118 7.619-.545 1.862-.588 3.64.336 4.698 1.639 1.862 2.227 5.417 2.017 7.66-.084.89-.336 1.61-.673 2.075-.63.804-1.428 1.016-2.352.296-.755-.593-1.638-2.032-2.605-4.825-.588-1.693-1.092-2.751-1.47-3.344-.126.55-.168 1.355-.126 2.328.126 4.318 1.806 11.259 5.672 14.391 2.52 2.031 2.269 3.936.881 5.672-1.008 1.27-2.73 2.328-4.116 3.175-.882.591-1.639 1.058-1.639 1.058-.965 3.216-2.898 4.4-4.579 5.375-1.008.592-1.89 1.1-2.058 2.116-.127.804-.295 1.524-.505 2.117v.042c-.21.677-.504 1.185-.755 1.608-.505.72-1.177 1.1-1.975 1.481-1.597.847-3.823 2.032-4.664 8-1.092 7.365 2.395 10.243 4.201 11.725.799.635 1.345 1.1 1.47 1.82.295 1.693 1.43 3.132 2.522 4.444 1.764 2.2 3.445 4.233 2.016 7.407-.798 1.778-.966 3.683-1.092 5.248-.084.974-.168 1.863-.379 2.625-.503 1.735-1.511 2.581-4.033 1.862-1.175-.339-3.57-3.005-5.712-5.883-2.395-3.174-4.622-6.73-4.58-7.789.126-3.047-1.554-6.39-3.529-8.76-.84-.974-1.68-1.778-2.478-2.329h-.084c-.673-.465-1.26-.677-1.638-.592-.084 0-.127.042-.21.127v.042l-.085.084v.043c-.924 1.227-2.394 1.948-3.865 2.243-1.512.254-3.025.043-3.949-.592l-.084-.042v-.043c-4.578-3.428-5.756-2.285-6.89-1.185-.84.846-1.68 1.65-3.15 1.65-1.807 0-1.849-1.311-1.849-2.539v-.508c-.127-.212.084.465-.378.72-3.74 2.497-3.74 3.513-3.235 4.275.084.169.252.338.379.55.42.508.798 1.058.965 1.82.42 1.65.043 2.37-.84 2.582-.63.126-1.176-.127-1.89-.508-.967-.508-2.395-1.228-3.445-.339-.673.592-2.184.847-3.613.762-1.302-.042-2.647-.423-3.318-1.143v-.042c-.547-.466-2.606-.89-4.748-1.016-2.143-.169-4.285-.042-4.958.635l-.04.042c-1.094 1.186-3.32 3.428-5.463 5.038-1.554 1.1-3.108 1.862-4.369 1.82h-.084c-1.134-.085-1.848-.085-2.268-.128-.043.34-.21.678-.505 1.143-.756.973-1.89 2.582-2.605 4.19-.63 1.482-.965 3.006-.335 4.106 1.008 1.736 1.386 2.963 1.344 3.851-.042 1.017-.588 1.651-1.386 1.948-.63.211-1.386.169-2.185 0-2.143-.424-5.041-1.948-6.428-3.005-5.587-4.106-5.67-4.487-6.091-6.18-.169-.677-.42-1.65-1.512-3.598-.967-1.693-1.597-3.174-2.185-4.444-1.806-3.979-2.521-5.63-10.04-4.487-.294.593-.84 1.44-1.303 2.075-.588.804-1.26 1.438-1.849 1.523-3.654.423-3.99-.424-4.747-2.243-.294-.762-.672-1.736-1.764-2.878-13.318-14.222-13.737-13.671-15.04-12.106-1.596 1.947-4.033 4.868-14.326 1.608-1.008-.338-3.529-1.65-6.301-3.217-3.865-2.158-8.15-4.782-9.2-5.501l-.127-.128a3.706 3.706 0 0 0 -1.344-.761c-.63-.212-1.177-.381-1.68-1.143-.295-.424-2.395-.382-4.202-.338-1.092 0-2.058.042-2.73-.086-.757-.127-2.94-2.624-5.21-5.544-2.688-3.555-5.755-7.873-6.385-9.1-.336-.678-.84-.678-1.344-.72-1.89-.042-3.697-.084-3.866-7.153 0-.042-.336-.635-.714-1.524-.672-1.396-1.47-3.09-1.554-3.217-2.143-3.09-.883-4.063.126-4.825.084-.042.126.254.126.085 0-.085-.084-.127-.21-.212-.925-.55-2.143-1.227-1.639-4.782-7.52-6.688-.461-25.523 4.327-38.349 1.765-4.74 3.235-8.634 3.445-10.58 0-.043 0-.085.042-.128.672-2.709 1.219-4.868 1.597-7.153.42-2.243.672-4.614.798-7.788 0-.89.252-1.524.63-1.947a1.885 1.885 0 0 1 1.135-.677c.377-.042.798 0 1.176.169.504.211 1.008.635 1.344 1.27l.042.042c.336.72.672 1.566.967 2.455l.63 1.651c.503 1.143 1.008 2.074 1.512 1.862 1.134-.466 1.26-2.328 1.429-4.063.125-1.524.21-2.963.965-3.937.168-.253.294-.423.42-.55.379-.465.715-.804.757-.889a.94.94 0 0 1 0-.677c.21-.55.84-.804 1.386-.593 15.628 6.18 31.214 11.048 47.347 14.434 16.09 3.386 32.768 5.248 50.496 5.418a.994.994 0 0 1 1.009.635c.21.507.588.804 1.092.973.756.212 1.68.17 2.478-.042 2.69-.72 3.865-.085 5.125.593.63.296 1.261.676 2.227.676 5.546.17 7.436 1.228 7.394 2.625-.041 1.693-3.15 3.217-5.713 4.444-1.302.635-2.437 1.185-2.52 1.312-.127.127-.21.127-.17.17.043.042.17.126.38.21.378.085.798.17 1.301.213 1.933.17 4.286 0 4.453-.255 1.765-2.793 4.412-4.444 6.135-4.951.503-.128.965-.17 1.344-.128.587.043 1.05.34 1.302.847 0 0 .042.043.042.084.21.51.126 1.101-.336 1.82-.084.085-.168.17-.294.255.714.085 1.596.38 2.479 1.311.041.044 1.764-.507 3.822-1.226 4.37-1.482 9.915-3.344 11.638.338 1.008 2.074.336 3.217-1.008 3.894-.967.466-2.312.55-3.53.592-1.008.085-1.932.127-2.016.255-.967 1.185-2.437 1.692-3.907 2.2-1.723.593-3.445 1.186-3.36 3.133.125 3.513-.254 4.868-.716 6.476-.252.889-.546 1.862-.755 3.386-.127.93-.21 1.778-.168 2.497" fill="#d9d9d9"/></g></svg>